# xmcd CD database file
#
# Track frame offsets:
#	150
#	19546
#	37396
#	50784
#	82329
#	101690
#	118209
#	138295
#	163062
#	176405
#	192597
#	208047
#	228154
#	245488
#
# Disc length: 3486 seconds
#
# Revision: 2
# Processed by: cddbd v1.5.1PL0 Copyright (c) Steve Scherf et al.
# Submitted via: CDex 1.51
#
DISCID=ce0d9c0e
DTITLE=Dr. Müller's Bluesband - Demo-CD
DYEAR=1900
DGENRE=Blues
TTITLE0=Hoochie Coochie Man
TTITLE1=I'm ready
TTITLE2=Same old Blues
TTITLE3=How blue can you get
TTITLE4=Louisiana Train
TTITLE5=Cach me if you can
TTITLE6=Lowdown in Lodi
TTITLE7=Real Mother
TTITLE8=You upset me
TTITLE9=I'know a little
TTITLE10=Dust my Blues
TTITLE11=Shake down
TTITLE12=You got me running
TTITLE13=Spank'in Leroy
EXTD=
EXTT0=
EXTT1=
EXTT2=
EXTT3=
EXTT4=
EXTT5=
EXTT6=
EXTT7=
EXTT8=
EXTT9=
EXTT10=
EXTT11=
EXTT12=
EXTT13=
PLAYORDER=
